<?xml version="1.0" encoding="UTF-8" standalone="no"?>
<svg
   xmlns:dc="http://purl.org/dc/elements/1.1/"
   xmlns:cc="http://creativecommons.org/ns#"
   xmlns:rdf="http://www.w3.org/1999/02/22-rdf-syntax-ns#"
   xmlns:svg="http://www.w3.org/2000/svg"
   xmlns="http://www.w3.org/2000/svg"
   xmlns:sodipodi="http://sodipodi.sourceforge.net/DTD/sodipodi-0.dtd"
   xmlns:inkscape="http://www.inkscape.org/namespaces/inkscape"
   inkscape:export-ydpi="98.289017"
   inkscape:export-xdpi="98.289017"
   inkscape:export-filename="/Users/ian/workspace/pdfshow/src/main/resources/images/logo.png"
   sodipodi:docname="logo.svg"
   inkscape:version="1.0 (4035a4f, 2020-05-01)"
   id="svg8"
   version="1.1"
   viewBox="0 0 12.7 12.7"
   height="48"
   width="48">
  <defs
     id="defs2">
    <rect
       id="rect100"
       height="4.1010417"
       width="4.2333333"
       y="19.645313"
       x="-8.4666667" />
    <rect
       x="-8.4666672"
       y="19.645313"
       width="4.2333331"
       height="4.1010418"
       id="rect100-7" />
    <rect
       x="-8.4666672"
       y="19.645313"
       width="4.2333331"
       height="4.1010418"
       id="rect193" />
    <filter
       height="1.0004243"
       y="-0.00021216758"
       width="1.001898"
       x="-0.0009489851"
       id="filter289"
       style="color-interpolation-filters:sRGB"
       inkscape:collect="always">
      <feGaussianBlur
         id="feGaussianBlur291"
         stdDeviation="0.0008568412"
         inkscape:collect="always" />
    </filter>
  </defs>
  <sodipodi:namedview
     inkscape:window-maximized="0"
     inkscape:window-y="23"
     inkscape:window-x="0"
     inkscape:window-height="720"
     inkscape:window-width="1252"
     units="px"
     showgrid="false"
     inkscape:document-rotation="0"
     inkscape:current-layer="layer3"
     inkscape:document-units="mm"
     inkscape:cy="31.756442"
     inkscape:cx="15.75"
     inkscape:zoom="4"
     inkscape:pageshadow="2"
     inkscape:pageopacity="0.0"
     borderopacity="1.0"
     bordercolor="#666666"
     pagecolor="#ffffff"
     id="base" />
  <metadata
     id="metadata5">
    <rdf:RDF>
      <cc:Work
         rdf:about="">
        <dc:format>image/svg+xml</dc:format>
        <dc:type
           rdf:resource="http://purl.org/dc/dcmitype/StillImage" />
        <dc:title></dc:title>
      </cc:Work>
    </rdf:RDF>
  </metadata>
  <g
     style="display:inline"
     inkscape:label="BG"
     id="layer2"
     inkscape:groupmode="layer">
    <rect
       y="2.4470076e-08"
       x="0.066145889"
       height="12.766147"
       width="12.832292"
       id="rect181"
       style="fill:#ffb380;stroke-width:0.235417" />
  </g>
  <g
     style="display:inline;filter:url(#filter289)"
     inkscape:label="Text"
     id="layer3"
     inkscape:groupmode="layer">
    <text
       xml:space="preserve"
       style="font-style:normal;font-variant:normal;font-weight:normal;font-stretch:normal;font-size:4.23332999999999959px;line-height:1.25;font-family:sans-serif;-inkscape-font-specification:'sans-serif, Normal';font-variant-ligatures:normal;font-variant-caps:normal;font-variant-numeric:normal;font-variant-east-asian:normal;display:inline;fill:#ffffff;fill-opacity:1;stroke:none;stroke-width:0.264583;"
       x="10.147654"
       y="4.3831944"
       id="text84"><tspan
         sodipodi:role="line"
         x="10.147654"
         y="4.3831944"
         style="font-style:normal;font-variant:normal;font-weight:normal;font-stretch:normal;font-size:4.23332999999999959px;font-family:sans-serif;-inkscape-font-specification:'sans-serif, Normal';font-variant-ligatures:normal;font-variant-caps:normal;font-variant-numeric:normal;font-variant-east-asian:normal;fill:#ffffff;stroke-width:0.264583;"
         id="tspan88">P</tspan></text>
    <text
       xml:space="preserve"
       id="text98"
       style="font-size:3.52777999999999992px;line-height:1.25;font-family:sans-serif;-inkscape-font-specification:'sans-serif, Normal';white-space:pre;shape-inside:url(#rect100-7);display:inline;fill:#ffffff;"
       transform="translate(18.680471,-15.328264)"><tspan
         x="-8.4667969"
         y="22.863032"><tspan
           style="fill:#ffffff">D</tspan></tspan></text>
    <text
       xml:space="preserve"
       style="font-size:3.52776999999999985px;line-height:1.25;font-family:sans-serif;-inkscape-font-specification:'sans-serif, Normal';display:inline;fill:#ffffff;stroke-width:0.264583;"
       x="10.2138"
       y="10.997776"
       id="text106"><tspan
         sodipodi:role="line"
         id="tspan104"
         x="10.2138"
         y="10.997776"
         style="fill:#ffffff;stroke-width:0.264583;">F</tspan></text>
  </g>
  <g
     style="display:inline"
     id="layer1"
     inkscape:groupmode="layer"
     inkscape:label="Lecturn + Text">
    <path
       id="path80"
       d="M 5.3121925,12.525092 C 4.7752502,12.36247 3.8691595,12.084142 3.2986579,11.906585 2.0910827,11.530751 2.0794678,11.520376 2.4617135,11.158986 L 2.701954,10.931852 2.1961207,7.6880181 C 1.5817888,3.7483974 1.3844681,2.5813296 1.325605,2.5392899 1.3009148,2.5216564 0.85611763,2.3452615 0.33716626,2.1473013 -0.42923521,1.8549485 -0.61021558,1.7680322 -0.62680218,1.6843534 -0.63802998,1.6276922 -0.61998408,1.5618808 -0.58666351,1.5381061 -0.5289957,1.49694 1.104266,1.0902192 3.6952633,0.47180238 L 4.8850795,0.18781803 7.0466137,0.91353106 C 8.2354572,1.3126731 9.2284586,1.6482048 9.2532856,1.6591572 c 0.02483,0.010952 0.131351,-0.031868 0.2367227,-0.095159 0.167065,-0.1003455 0.21144,-0.1086135 0.346739,-0.06461 0.111498,0.036263 0.143704,0.071624 0.114458,0.1256695 -0.02239,0.041364 -0.07313,0.1518043 -0.112763,0.2454225 -0.05547,0.1310127 -0.195024,0.2458634 -0.6059567,0.4986815 -0.3468177,0.2133732 -0.5340327,0.3597578 -0.5342947,0.4177682 -2.45e-4,0.049115 -0.06766,0.83408 -0.14987,1.7443638 -0.08221,0.9102838 -0.1912887,2.203847 -0.2424047,2.8745828 -0.05111,0.6707358 -0.109694,1.3998191 -0.130165,1.6201828 l -0.03722,0.4006644 0.21902,0.065319 c 0.1634397,0.048749 0.2182407,0.090751 0.2159527,0.1655415 -0.0036,0.1188201 -2.1352793,3.1425528 -2.2240276,3.1547768 -0.033551,0.0046 -0.5003325,-0.12465 -1.037276,-0.287273 z m 2.077925,-1.429955 c 0.5849517,-0.819373 1.0431504,-1.4900364 1.0182177,-1.4903642 -0.02493,-3.481e-4 -0.107109,-0.01241 -0.182617,-0.026856 -0.120295,-0.023013 -0.137287,-0.00995 -0.137287,0.105919 0,0.1596493 -0.05366,0.2699685 -0.131325,0.2699685 -0.03148,0 -0.04276,-0.063703 -0.02503,-0.1415523 0.01772,-0.077854 0.0607,-0.5825386 0.09551,-1.1215227 0.03481,-0.5389841 0.119392,-1.7306624 0.187967,-2.6481744 0.06858,-0.9175119 0.116076,-1.6935823 0.105559,-1.7246018 -0.01056,-0.031015 -0.43098,0.2578598 -0.9343637,0.6419542 L 6.4715034,5.6582608 6.4363353,8.7751156 C 6.4040814,11.63426 6.3701559,12.240156 6.2370219,12.335189 6.2064066,12.357049 6.1590759,4.4255826 6.1889765,4.2824264 6.1924955,4.2653252 6.1546112,4.2625221 6.1046742,4.2762098 5.9826317,4.3096437 5.989926,4.1970447 6.1283286,3.9110816 6.1890865,3.785551 6.2247934,3.6728549 6.2076932,3.6606444 6.1249415,3.6015757 6.0260376,3.6521673 5.9747844,3.7796973 5.9435752,3.8573817 5.8778137,3.9264783 5.8286575,3.9332351 5.7433656,3.9449562 3.9033257,3.2716278 0.96236643,2.1524888 0.21434516,1.8678299 -0.41030841,1.6349363 -0.42575571,1.6349363 c -0.015451,0 -0.028086,0.018487 -0.028086,0.041081 0,0.022596 0.3912664,0.1881884 0.86948087,0.3679851 0.47821447,0.1797969 0.92026014,0.3535657 0.98232334,0.3861528 0.1266436,0.066497 0.1497305,0.1823776 0.6181787,3.102889 0.560534,3.494614 0.8364297,5.3185938 0.8289551,5.4803258 -0.00418,0.09169 0.015176,0.156607 0.043141,0.144268 0.027965,-0.01234 0.053533,0.04494 0.056799,0.127288 0.0033,0.08235 -0.014384,0.149725 -0.039237,0.149725 -0.057173,0 -0.1868043,-0.200195 -0.1868043,-0.288496 0,-0.04305 -0.053962,-0.02084 -0.1525402,0.06278 -0.1994783,0.16922 -0.1934861,0.195642 0.064266,0.28338 0.1192438,0.04059 0.2001909,0.093 0.1798785,0.116455 -0.021741,0.02511 0.00605,0.03087 0.067774,0.01398 0.077154,-0.02114 0.091406,-0.01333 0.054182,0.02968 -0.036917,0.04265 -0.023193,0.05087 0.051004,0.03054 0.055842,-0.01529 0.1015344,-0.0077 0.1015344,0.01694 0,0.02462 0.027459,0.03265 0.061022,0.01784 0.033551,-0.01481 0.061022,-0.005 0.061022,0.02178 0,0.02679 0.02791,0.03638 0.062012,0.02134 0.034101,-0.01504 0.046407,-0.04538 0.027338,-0.0674 -0.019311,-0.0223 0.012668,-0.02708 0.072195,-0.01074 0.065684,0.01799 0.078661,0.03598 0.033684,0.04668 -0.040249,0.0096 -0.073184,0.0331 -0.073184,0.05225 0,0.05542 0.2276457,0.08286 0.294056,0.03546 0.039699,-0.02834 0.098752,-0.02707 0.1729394,0.0037 0.061957,0.0257 0.078342,0.04734 0.036389,0.04807 -0.041953,7.46e-4 -0.076275,0.02209 -0.076275,0.04745 0,0.02538 0.025557,0.03485 0.056799,0.02107 0.031242,-0.01378 0.074328,-0.0047 0.095739,0.01992 0.021422,0.02473 0.064497,0.03369 0.095739,0.01992 0.031242,-0.01379 0.056799,-0.0032 0.056799,0.02363 0,0.02679 0.027459,0.03659 0.061022,0.02178 0.033551,-0.01481 0.061022,-0.005 0.061022,0.02178 0,0.02679 0.025557,0.03741 0.056799,0.02363 0.031242,-0.01378 0.074328,-0.0047 0.095739,0.01992 0.021422,0.02473 0.068214,0.03207 0.1039867,0.01629 0.03872,-0.01708 0.00616,-0.052 -0.080486,-0.08627 -0.080046,-0.03167 -0.1180715,-0.05759 -0.084511,-0.05759 0.092055,0 0.3777908,0.124254 0.2898277,0.126033 -0.041953,8.71e-4 -0.076275,0.0223 -0.076275,0.04766 0,0.02538 0.027459,0.03401 0.061022,0.0192 0.033552,-0.01481 0.061022,-0.0061 0.061022,0.0192 0,0.02538 0.020597,0.04196 0.045769,0.03687 0.025172,-0.0051 0.1039317,0.01382 0.1750267,0.04202 0.071095,0.0282 0.1466018,0.03889 0.167794,0.02377 0.021191,-0.01512 0.038533,-0.004 0.038533,0.02484 0,0.03956 0.031066,0.04048 0.1272583,0.0037 0.069995,-0.02674 0.1432116,-0.03722 0.1627102,-0.02331 0.019497,0.01393 0.00341,0.02531 -0.035729,0.02531 -0.03916,2e-6 -0.071183,0.02075 -0.071183,0.04613 0,0.02538 0.027459,0.03401 0.061022,0.0192 0.033552,-0.01481 0.061022,-0.005 0.061022,0.02178 0,0.02679 0.027459,0.03659 0.061022,0.02178 0.033552,-0.01481 0.061022,-0.0068 0.061022,0.01784 0,0.02462 0.041183,0.03348 0.091527,0.01969 0.050344,-0.01379 0.091527,-0.004 0.091527,0.02178 0,0.02581 0.045615,0.03435 0.1015344,0.01903 0.073723,-0.0202 0.087854,-0.01201 0.051586,0.02987 -0.033365,0.03854 -0.026382,0.04729 0.021037,0.02637 0.092572,-0.04084 0.3260163,0.01225 0.2812479,0.06396 -0.020058,0.02317 0.019443,0.02559 0.094441,0.0058 0.091989,-0.02429 0.4336309,-0.460857 1.1924795,-1.523814 z m -1.8643674,1.275927 c -0.083895,-0.03424 -0.1250831,-0.06224 -0.091527,-0.06224 0.033552,0 0.1296601,0.02801 0.2135576,0.06224 0.083895,0.03424 0.1250832,0.06224 0.091527,0.06224 -0.033563,0 -0.12966,-0.02801 -0.2135576,-0.06224 z M 4.8545708,12.175071 c -0.050344,-0.02322 -0.064068,-0.04222 -0.030505,-0.04222 0.033552,0 0.1022052,0.019 0.1525413,0.04222 0.050344,0.02323 0.064068,0.04222 0.030505,0.04222 -0.033552,0 -0.1022052,-0.019 -0.1525413,-0.04222 z M 3.7257709,11.87019 c 0.02074,-0.02395 0.00858,-0.04356 -0.026898,-0.04356 -0.035542,0 -0.064618,0.0196 -0.064618,0.04356 0,0.02395 0.012108,0.04356 0.026898,0.04356 0.014802,0 0.043878,-0.0196 0.064618,-0.04356 z M 7.4846135,4.7055112 C 7.5537535,4.6336472 7.3496443,4.7659472 7.0310388,4.9995016 6.7124333,5.2330625 6.4218776,5.4241563 6.385358,5.4241563 c -0.036521,0 -0.0653,0.044104 -0.063958,0.097996 0.00198,0.079346 0.1009185,0.023408 0.5199719,-0.2939916 C 7.1260169,5.0125677 7.4154775,4.7773746 7.4846185,4.70551 Z m 0.115549,-0.2613264 0.7759287,-0.5662059 0.04481,-0.494946 c 0.02853,-0.3150068 0.02331,-0.4891836 -0.01433,-0.4790966 -0.03253,0.00871 -0.436203,0.2507103 -0.8970547,0.5377629 C 7.0486691,3.7287508 6.6197207,3.989555 6.5563026,4.0212628 6.452294,4.0732672 6.4411706,4.1394703 6.4427838,4.6970917 l 0.00176,0.6181786 0.1898317,-0.1524392 C 6.7387797,5.0789866 7.173375,4.7555986 7.6001345,4.4441848 Z M 6.3010052,4.237302 c -0.014538,-0.053903 -0.026436,-0.00983 -0.026436,0.097996 0,0.1077953 0.011899,0.1518967 0.026436,0.097996 0.014549,-0.053903 0.014549,-0.142096 0,-0.1959947 z M 7.2655037,3.3849295 c -0.043405,-0.030981 0.3387798,-0.3129053 0.4230378,-0.3120564 0.03537,3.571e-4 -0.04553,0.068218 -0.179764,0.1508044 -0.134236,0.082587 -0.2153163,0.150893 -0.1801779,0.1517916 0.035135,8.714e-4 0.1711329,-0.076758 0.3022099,-0.1725813 0.131078,-0.095819 0.214236,-0.1742168 0.184797,-0.1742168 -0.02944,0 0.011,-0.048999 0.08978,-0.108886 0.178259,-0.1354455 0.305485,-0.1448579 0.14718,-0.010885 -0.106791,0.090375 -0.102931,0.089884 0.04968,-0.00633 0.09101,-0.05738 0.153441,-0.1182297 0.13873,-0.1352204 -0.02648,-0.030589 0.130412,-0.1427568 0.3660974,-0.2617291 0.06711,-0.03388 0.03967,0.00405 -0.06102,0.084281 -0.1809074,0.1441749 -0.1811454,0.1450169 -0.02038,0.071944 0.08947,-0.040666 0.178512,-0.1034041 0.197872,-0.1394178 0.01936,-0.036014 0.06107,-0.054069 0.09267,-0.040125 0.03161,0.013944 0.1317317,-0.044144 0.2224957,-0.1290878 0.09077,-0.084943 0.179754,-0.1439288 0.197754,-0.1310803 0.03974,0.02837 0.3163527,-0.1511984 0.3163527,-0.2053698 0,-0.021193 -0.02746,-0.026419 -0.06102,-0.011615 -0.09931,0.043816 -0.06954,-0.00617 0.04223,-0.070887 0.07015,-0.040617 0.08855,-0.042326 0.05741,-0.00534 -0.0262,0.031128 -0.01535,0.054442 0.02533,0.054442 0.03913,0 0.05662,-0.02701 0.03887,-0.060024 -0.01775,-0.033013 -1.22e-4,-0.085966 0.03924,-0.1176738 0.05744,-0.046315 0.05351,-0.048455 -0.02003,-0.010885 C 9.5809683,1.842757 8.0673025,2.7014021 7.6322958,2.9534532 7.4988798,3.0307582 7.1968504,3.1982322 6.9611208,3.3256179 6.5508823,3.5473062 6.5443963,3.5491723 6.8097372,3.369179 6.962207,3.2657478 7.319151,3.0468508 7.6029475,2.8827414 9.1996306,1.9594337 9.8330103,1.5681889 9.7527573,1.5547841 c -0.04883,-0.00816 -0.149888,0.026142 -0.224565,0.07622 -0.07468,0.050078 -0.1658927,0.09105 -0.2027017,0.09105 -0.105538,0 -1.3177474,-0.3815524 -2.9623815,-0.93243223 L 4.8513399,0.28323462 3.495344,0.61320619 C 2.7495463,0.79469056 1.6240884,1.0588244 0.99432453,1.2001702 0.36456286,1.341516 -0.19454591,1.4746783 -0.24813711,1.4960865 c -0.074911,0.029923 0.077,0.1047446 0.65689427,0.3235561 C 0.82363943,1.9761903 1.6298628,2.2855301 2.2003644,2.5070643 2.7708671,2.7285985 3.8175807,3.1231222 4.5263969,3.3837846 L 5.8151523,3.8577152 5.8518379,3.7371839 C 5.9184022,3.5185111 5.9721352,3.4913571 6.214475,3.5539094 6.4143613,3.6055069 6.425544,3.6178044 6.3673495,3.7219996 6.3328192,3.7838375 6.2831352,3.8984212 6.2569582,3.9766392 6.21164,4.1120416 6.2354483,4.1018499 6.754149,3.763827 7.0537859,3.5685646 7.2838928,3.3980601 7.2654983,3.3849295 Z M 6.9291229,3.5348776 c 0,-0.00904 0.048045,-0.043346 0.1067799,-0.076215 0.096773,-0.054174 0.098928,-0.052637 0.023039,0.016446 -0.079706,0.072553 -0.1298151,0.095622 -0.1298151,0.059781 z m 1.8132,-1.116499 c 0.02628,-0.016262 0.178778,-0.113859 0.3388697,-0.2168806 0.160092,-0.103022 0.308155,-0.1751203 0.32903,-0.1602193 0.0517,0.0369 -0.102612,0.1644976 -0.165419,0.1367882 -0.02757,-0.012162 -0.120328,0.043585 -0.206129,0.1238834 -0.0858,0.080299 -0.1983357,0.1459969 -0.2500757,0.1459969 -0.05174,0 -0.07257,-0.013306 -0.04627,-0.029568 z M 8.4240209,2.2011395 c 0.06075,-0.047909 0.124167,-0.087109 0.140947,-0.087109 0.01678,0 -0.01919,0.039199 -0.07993,0.087109 -0.06075,0.047909 -0.1241667,0.087109 -0.1409467,0.087109 -0.01678,0 0.01919,-0.039199 0.07992,-0.087109 z M -2.4428183,6.3823506 c 0,-0.3712997 0.00935,-0.5231964 0.020795,-0.3375449 0.011437,0.1856493 0.011437,0.4894404 0,0.6750908 -0.011437,0.1856504 -0.020795,0.03375 -0.020795,-0.3375459 z"
       style="fill:#000000;stroke-width:0.0515512" />
  </g>
</svg>
